<?xml version="1.0" encoding="utf-8"?>
<!-- Generator: Adobe Illustrator 24.1.0, SVG Export Plug-In . SVG Version: 6.00 Build 0)  -->
<svg version="1.1" xmlns="http://www.w3.org/2000/svg" xmlns:xlink="http://www.w3.org/1999/xlink" x="0px" y="0px"
	 viewBox="0 0 1720.7 1200" style="enable-background:new 0 0 1720.7 1200;" xml:space="preserve">
<style type="text/css">
	.st0{fill:#FCFCFC;}
	.st1{fill:#F2E0DF;}
	.st2{fill:#FFFFFF;stroke:#212121;stroke-width:2.78;stroke-linecap:round;stroke-linejoin:round;stroke-miterlimit:10;}
	.st3{fill:#E7F1E8;}
	
		.st4{clip-path:url(#XMLID_2_);fill:#FFFFFF;stroke:#212121;stroke-width:2.78;stroke-linecap:round;stroke-linejoin:round;stroke-miterlimit:10;}
	.st5{fill:#212121;}
	.st6{fill:#F9D285;}
	.st7{fill:none;stroke:#5B6DEF;stroke-width:30;stroke-miterlimit:10;}
	.st8{fill:#5B6DEF;}
	.st9{fill:none;stroke:#212121;stroke-width:2.78;stroke-linecap:round;stroke-linejoin:round;stroke-miterlimit:10;}
	.st10{fill:#FFFFFF;stroke:#212121;stroke-width:15;stroke-linecap:round;stroke-linejoin:round;stroke-miterlimit:10;}
	.st11{fill:#3AAB97;stroke:#212121;stroke-width:2.78;stroke-miterlimit:10;}
</style>
<g id="Layer_1">
	<path class="st0" d="M-4829.5,325.2c-0.4,1.5-1.6,2.4-2.8,3.2C-4832,326.8-4830.7,326-4829.5,325.2z"/>
	<path class="st0" d="M-4843.1,341.6c-0.2,1-0.8,1.7-1.7,2.2C-4844.8,342.6-4844.1,342-4843.1,341.6z"/>
	<path class="st0" d="M-4835.5,332.3c-0.2,1-0.8,1.7-1.7,2.2C-4837.1,333.3-4836.4,332.7-4835.5,332.3z"/>
	<path class="st0" d="M-4851.3,353.6c-0.1,0.7-0.4,1.3-1.1,1.7C-4852.5,354.4-4852.1,353.8-4851.3,353.6z"/>
	<path class="st0" d="M-4838.2,335.6c-0.1,0.8-0.5,1.3-1.1,1.6C-4839.4,336.4-4839,335.8-4838.2,335.6z"/>
	<path class="st0" d="M-4840.4,338.3c-0.1,0.8-0.5,1.3-1.1,1.6C-4841.5,339.1-4841.2,338.5-4840.4,338.3z"/>
	<path class="st0" d="M-4855.2,360.1c0,0.4-0.1,0.8-0.6,1.1C-4855.7,360.7-4855.6,360.3-4855.2,360.1z"/>
	<path class="st0" d="M-4854.6,359c0,0.5-0.2,0.8-0.6,1.1C-4855.2,359.6-4855.1,359.2-4854.6,359z"/>
	<path class="st0" d="M-4854,357.9c0,0.5-0.1,0.9-0.6,1.1C-4854.6,358.6-4854.5,358.1-4854,357.9z"/>
	<path class="st0" d="M-4853,356.3c0,0.4-0.1,0.8-0.6,1.1C-4853.5,356.9-4853.4,356.5-4853,356.3z"/>
	<path class="st0" d="M-4852.4,355.2c0,0.5-0.1,0.9-0.6,1.1C-4853,355.8-4852.9,355.4-4852.4,355.2z"/>
	<path class="st0" d="M-4850.8,352.5c0,0.5-0.1,0.9-0.6,1.1C-4851.4,353.1-4851.3,352.7-4850.8,352.5z"/>
	<path class="st0" d="M-4849.7,350.8c0,0.5-0.2,0.8-0.6,1.1C-4850.3,351.4-4850.2,351-4849.7,350.8z"/>
	<path class="st0" d="M-4849.1,349.7c0,0.5-0.1,0.9-0.6,1.1C-4849.7,350.4-4849.6,350-4849.1,349.7z"/>
	<path class="st0" d="M-4847.5,347.6c0,0.4-0.2,0.8-0.6,1C-4848.1,348.2-4848,347.8-4847.5,347.6z"/>
	<path class="st0" d="M-4846.4,345.9c0,0.5-0.2,0.8-0.6,1.1C-4847,346.5-4846.9,346.1-4846.4,345.9z"/>
	<path class="st0" d="M-4845.3,344.3c0,0.5-0.2,0.8-0.6,1.1C-4845.9,344.9-4845.8,344.5-4845.3,344.3z"/>
	<path class="st0" d="M-4833.9,330.1c0,0.5-0.2,0.8-0.6,1.1C-4834.4,330.7-4834.3,330.3-4833.9,330.1z"/>
	<path class="st0" d="M-4825.7,321.4c-0.2,0.2-0.4,0.4-0.5,0.6C-4826.1,321.7-4825.9,321.5-4825.7,321.4z"/>
	<path class="st0" d="M-4826.3,321.9c-0.2,0.2-0.4,0.4-0.5,0.6C-4826.6,322.3-4826.4,322.1-4826.3,321.9z"/>
	<path class="st0" d="M-4826.8,322.5c-0.2,0.2-0.4,0.4-0.6,0.6C-4827.2,322.8-4827,322.7-4826.8,322.5z"/>
	<path class="st0" d="M-4827.3,323c-0.2,0.2-0.4,0.4-0.6,0.6C-4827.7,323.4-4827.5,323.2-4827.3,323z"/>
	<path class="st0" d="M-4827.9,323.6c-0.2,0.2-0.4,0.4-0.6,0.6C-4828.3,323.9-4828.1,323.7-4827.9,323.6z"/>
	<path class="st0" d="M-4828.4,324.1c-0.2,0.2-0.4,0.4-0.6,0.6C-4828.8,324.5-4828.6,324.3-4828.4,324.1z"/>
	<path class="st0" d="M-4829,324.7c-0.2,0.2-0.4,0.4-0.6,0.6C-4829.3,325-4829.1,324.8-4829,324.7z"/>
	<path class="st0" d="M-4832.3,328.5c-0.2,0.2-0.4,0.4-0.5,0.6C-4832.6,328.8-4832.5,328.6-4832.3,328.5z"/>
	<path class="st0" d="M-4832.8,329c-0.2,0.2-0.4,0.4-0.5,0.6C-4833.2,329.4-4833,329.2-4832.8,329z"/>
	<path class="st0" d="M-4833.3,329.6c-0.2,0.2-0.4,0.4-0.6,0.6C-4833.7,329.9-4833.5,329.8-4833.3,329.6z"/>
	<path class="st0" d="M-4834.5,331.2c-0.2,0.2-0.3,0.4-0.5,0.6C-4834.8,331.6-4834.6,331.4-4834.5,331.2z"/>
	<path class="st0" d="M-4835,331.7c-0.2,0.2-0.4,0.4-0.5,0.6C-4835.3,332.1-4835.2,331.9-4835,331.7z"/>
	<path class="st0" d="M-4837.2,334.5c-0.2,0.2-0.4,0.4-0.5,0.6C-4837.5,334.8-4837.4,334.6-4837.2,334.5z"/>
	<path class="st0" d="M-4837.7,335c-0.2,0.2-0.4,0.4-0.6,0.6C-4838.1,335.4-4837.9,335.2-4837.7,335z"/>
	<path class="st0" d="M-4839.4,337.2c-0.2,0.2-0.4,0.4-0.5,0.6C-4839.7,337.6-4839.5,337.4-4839.4,337.2z"/>
	<path class="st0" d="M-4839.9,337.7c-0.2,0.2-0.4,0.4-0.5,0.6C-4840.3,338.1-4840.1,337.9-4839.9,337.7z"/>
	<path class="st0" d="M-4841.6,339.9c-0.2,0.2-0.3,0.4-0.5,0.6C-4841.9,340.3-4841.7,340.1-4841.6,339.9z"/>
	<path class="st0" d="M-4842.1,340.5c-0.2,0.2-0.4,0.4-0.5,0.6C-4842.4,340.8-4842.3,340.7-4842.1,340.5z"/>
	<path class="st0" d="M-4842.6,341c-0.2,0.2-0.4,0.4-0.6,0.6C-4843,341.4-4842.8,341.2-4842.6,341z"/>
	<path class="st0" d="M-4844.8,343.7c-0.2,0.2-0.4,0.4-0.5,0.6C-4845.2,344.1-4845,343.9-4844.8,343.7z"/>
	<path class="st0" d="M-4845.9,345.4c-0.2,0.2-0.4,0.4-0.5,0.6C-4846.3,345.8-4846.1,345.6-4845.9,345.4z"/>
	<path class="st0" d="M-4847,347c-0.2,0.2-0.3,0.4-0.5,0.6C-4847.4,347.4-4847.2,347.2-4847,347z"/>
	<path class="st0" d="M-4848.1,348.6c-0.2,0.2-0.3,0.4-0.5,0.6C-4848.5,349-4848.3,348.8-4848.1,348.6z"/>
	<path class="st0" d="M-4848.6,349.2c-0.2,0.2-0.4,0.4-0.5,0.6C-4849,349.6-4848.8,349.4-4848.6,349.2z"/>
	<path class="st0" d="M-4850.3,351.9c-0.2,0.2-0.3,0.4-0.5,0.6C-4850.6,352.3-4850.5,352.1-4850.3,351.9z"/>
	<path class="st0" d="M-4853.6,357.4c-0.2,0.2-0.3,0.4-0.5,0.6C-4853.9,357.8-4853.7,357.6-4853.6,357.4z"/>
</g>
<g id="Layer_4">
	<path class="st1" d="M1428.8,299.3l127.7,392.3c54.8,168.4-65.5,342.8-242.4,351.4l-881.4,42.7c-206.5,10-346.4-207.3-251.8-391.2
		l208-404.1c43.5-84.6,128.6-139.8,223.6-145.2l545.7-30.9C1280,107.4,1391.1,183.4,1428.8,299.3z"/>
	<g>
		<g>
			<g>
				<g>
					<g>
						<g>
							<path class="st2" d="M771.7,562.7H542.6c-2.4,0-4.7,0.2-7,0.4c-2.3-0.2-4.6-0.4-7-0.4l-318.3-10.9
								c-29.3,0-47.3,2.2-47.3,38.3l-5.1,233.5c0,23.3,23.8,42.2,53.1,42.2h317.5c2.4,0,4.7-0.2,7-0.4c2.3,0.2,4.6,0.4,7,0.4h229.1
								c29.3,0,53.1-18.9,53.1-42.2V604.9C824.8,570.4,801,562.7,771.7,562.7z"/>
							<path class="st2" d="M166.5,1005.6H156c-10.5,0-19-8.5-19-19l0,0c0-10.5,8.5-19,19-19h10.5c10.5,0,19,8.5,19,19l0,0
								C185.5,997.1,177,1005.6,166.5,1005.6z"/>
							<path class="st2" d="M804.2,1005.6h10.5c10.5,0,19-8.5,19-19l0,0c0-10.5-8.5-19-19-19h-10.5c-10.5,0-19,8.5-19,19l0,0
								C785.3,997.1,793.8,1005.6,804.2,1005.6z"/>
							<polygon class="st2" points="586.9,827.7 491.8,827.7 185.5,827.7 185.5,978.9 491.8,978.9 586.9,978.9 802.1,978.9 
								802.1,827.7 							"/>
							<polygon class="st2" points="586.9,827.7 491.8,827.7 185.5,827.7 185.5,845.3 491.8,845.3 586.9,845.3 802.1,845.3 
								802.1,827.7 							"/>
							<path class="st2" d="M114.8,807.3c0,39.4,0,171.5,0,171.5h91.8c0,0,0-161.7,0-203.9c0-42.2-54.2-138.4-108.7-80.4
								C61.8,733,114.8,768,114.8,807.3z"/>
						</g>
					</g>
					<g>
						<path class="st3" d="M654.7,704.6c0,0-12.8-7.9-15-4.3c-2.1,3.6,7.5,12.8,7.5,12.8s-24.3,57.3-6.5,100.6
							c0,0-10.5,16.1-4.1,14.8c6.4-1.3,13.3-5.2,13.3-5.2s47,17.4,114.7,11.8c0,0,6.3,5,11.7,2.9c5.4-2.1-6-9.3-6-9.3
							s14.7-49.1-3.6-110.9c0,0,8-8.7,5.2-12.3c-2.8-3.6-13.5,3.5-13.5,3.5S704.6,685.4,654.7,704.6z"/>
					</g>
				</g>
				<path class="st2" d="M855.9,807.3c0,39.4,0,171.5,0,171.5h-91.8c0,0,0-161.7,0-203.9c0-42.2,54.2-138.4,108.7-80.4
					C908.9,733,855.9,768,855.9,807.3z"/>
			</g>
		</g>
		<g>
			<g>
				<path class="st2" d="M247.9,805.2c-6.1-4.8-11.2-11-14.6-18.1c-3.4-7.1-5.1-15-4.9-22.7c0.2-7.8,2.2-15.3,5.4-22.1
					c3.2-6.8,7.6-12.8,12.5-18.1l3.5-3.6l0.8-0.8l0.7-0.9c0.5-0.6,1-1.1,1.4-1.7c1.9-2.4,3.3-5,4.6-7.7c2.5-5.4,3.7-11.4,3.4-17.4
					c-0.3-6-2-12-5.2-16.9c-3.1-4.9-8-8.5-13.2-8.5l-0.1,0c-2.1,0-3.7-1.7-3.7-3.7c0-2,1.6-3.6,3.6-3.7c4.2-0.2,8.4,1.1,11.8,3.2
					c1.8,1,3.3,2.3,4.7,3.6c1.4,1.4,2.7,2.8,3.8,4.4c4.5,6.2,6.9,13.6,7.6,21c0.7,7.5-0.5,15.1-3.3,22.1c-1.4,3.5-3.2,6.9-5.3,9.9
					c-0.5,0.8-1.1,1.5-1.7,2.3l-0.9,1.1l-0.9,1.1l-3.3,3.8c-4,4.8-7.4,10-9.7,15.6c-2.3,5.5-3.5,11.4-3.4,17.2
					c0.1,5.7,1.6,11.3,4.3,16.3c2.7,5,6.6,9.2,11.2,12.6c3.4,2.4,4.1,7.1,1.7,10.5c-2.4,3.4-7.1,4.1-10.5,1.7
					C248.2,805.4,248.1,805.3,247.9,805.2L247.9,805.2z"/>
				<path class="st2" d="M369.8,761.4c0,0-4.2,42.6,6.1,58.6c0,0,9-1.9,10.3,5.1c1.3,7-14.3,10.9-19.9,5.1
					c-12.8-13.5-10.9-35.9-12.8-50.3L369.8,761.4z"/>
				<g>
					<defs>
						<path id="XMLID_164_" d="M341.6,803.7c0,0,4.5,31.4,17.9,35.5c13.5,5.5,27.1-9.9,9-13.7c0,0-9.6-14.1-6.4-31.4
							c3.2-17.3,33.3-79.5,22.1-119.2c-14-49.7-26.6-19.6-26.6-19.6l-20.5,0.8c0,0-9.3-16.7-17.6-8.6c-8.3,8-15.3,43.4-8.8,56.2
							c0,0-55,16-67.1,67.9C233.4,815,257,830,276.2,837.1c19.2,7,66,10.8,63.4-3.8c-1.9-10.8-13.9-7.5-13.9-7.5L341.6,803.7z"/>
					</defs>
					<use xlink:href="#XMLID_164_"  style="overflow:visible;fill:#FFFFFF;"/>
					<clipPath id="XMLID_2_">
						<use xlink:href="#XMLID_164_"  style="overflow:visible;"/>
					</clipPath>
					<path class="st4" d="M394.4,687.6c0.6-0.7,1-1.5,1.1-2.4c0.8-4.4-0.2-8.6-2.1-12.7c-0.9-3.7-2.7-7.2-4.5-9.9
						c-3.6-5.4-8.1-11.1-13.8-14.5c-1.8-1.1-3.5-1.6-5.2-1.6c-6-4.3-12.8-7-18.4-2.4c-1.9,1.5-2.4,3.4-2.2,5.1
						c-1.3-0.6-2.7-0.7-4-0.4c-0.2,0-0.5,0-0.7,0c-3.5-1.3-7.5,0.1-11.1,2.2c-3.3-5.2-9.8-7.8-17.3-5.4c-5.6,1.8-8.1,8.8-3.9,10.6
						c-4.2,3.3-4.4,7.9-6.4,11.6c-1.8,3.4-2.8,7.5-1.9,11.3c-1.9,3.6-2.6,7.5-0.5,10.9c1.2,1.9,2.6,3.2,4.1,3.9
						c2.6,4.6,8.3,6.2,14,5.2c7-1.3,13.7-5.7,18.7-10.6c0.9-0.9,1.9-1.9,2.9-2.9c1.5,6.1,6.4,12,11.1,15.5
						c8.2,6.2,18.3,9.2,28.4,10.9c1.4,0.3,2.8,0.5,4.2,0.6c7.6,0.6,8.4-9.6,2.6-12.6c2.2-0.9,4.2-2.3,5.8-4.3
						C397.8,692.9,397.2,689.2,394.4,687.6z"/>
					<path class="st4" d="M335.5,747.9c0.6-6.3-2.1-13-4.7-18.6c-2.7-5.9-7.1-11.2-11.1-16.3c-1.8-2.3-3.8-4.5-5.8-6.7
						c-2.1-2.3-5.1-3.2-7.7-4.9c-1.6-1.1-3.6,0.2-3.9,1.9c-1.2-0.4-2.5-0.6-4-0.3c-6,1.2-11.2,2.4-16.7,5.1
						c-5.9,2.8-11.3,6.4-16.4,10.4c-9.9,7.7-18.3,17.2-24.9,27.8c-11.6,18.8-14.9,40.2-7.4,61.1c6.5,18,20.1,34.9,40.2,36.7
						c10.4,1,18.4-4.5,27-9.1c7.6-4.1,16.1-6.6,23.3-11.5c8.1-5.5,13-14.1,9.5-23.9c-2.1-5.8-5.4-11-7.2-16.8
						c-1.8-5.8,1-11.4,3.6-16.5C332.3,760.3,334.8,754.6,335.5,747.9z"/>
					<path class="st4" d="M345.7,644.1c-2.7,6.8-5.3,16.9-2.4,24c0.4,1,2,1.6,2.5,0.3c1.6-3.7,2.1-7.8,2.8-11.7
						c0.7-4,1.7-7.9,2.1-11.9C351.1,641.7,346.7,641.7,345.7,644.1z"/>
					<path class="st4" d="M316.2,677.2c-3.2-1.8-6.3-3.7-9.6-5.2c-2.9-1.4-6.1,1.5-4.5,4.5c2.5,4.5,10.6,7.6,14.3,2.8
						C316.9,678.6,317,677.7,316.2,677.2z"/>
					<path class="st4" d="M311.1,689.7c-3.3-0.2-5.7-2-7.9-4.3c-2-2-5.5,0.6-3.9,3c2.8,4.4,7.9,5.7,12.4,3.1
						C312.5,691,312,689.8,311.1,689.7z"/>
					<path class="st4" d="M389,675.8c-1.9,1.1-3.8,2.2-5.9,3c-2,0.8-4.1,1.3-6,2.2c-2,0.9-0.9,3.8,1.1,3.9
						c4.9,0.1,10.7-1.1,14.5-4.4C395.3,678.2,391.9,674.1,389,675.8z"/>
					<path class="st4" d="M398.3,695.1c-2.9-1.5-5.8-0.8-8.9-0.9c-3.4-0.2-6.6-0.7-9.9-1.4c-1.3-0.3-2.7,1.4-1.4,2.5
						c4.9,4.2,15,9.7,20.9,4.7C400.4,698.7,400,695.9,398.3,695.1z"/>
					<path class="st4" d="M299.6,745.6c-7.9-1-11.3-10.4-13.5-16.8c-2.7-7.7-4.1-15.9-5.8-23.8c-0.7-3.2-5.3-2.3-5.5,0.7
						c-0.6,10,1.3,20.6,5.1,29.8c3.4,8.1,10.3,17.9,20.4,14.9C303.1,749.6,302.2,746,299.6,745.6z"/>
					<path class="st4" d="M277.6,745.4c-2.6-3-5.3-5.5-6.8-9.3c-1.2-3.4-1.5-7.4-1.5-11c0-2.9-3.8-3-4.7-0.6
						c-3.2,8.4,1.7,22.6,12,23.1C277.9,747.7,278.3,746.2,277.6,745.4z"/>
					<path class="st4" d="M299.8,726.7c-6-6.3-4.9-17.4-6.4-25.3c-0.5-2.6-4.8-2.6-5.3,0c-1.5,8-0.8,27.4,10.6,27.8
						C300.1,729.4,300.7,727.6,299.8,726.7z"/>
					<path class="st4" d="M280.6,773.2c-8.7-2.3-14-8.9-18.2-16.6c-4.4-8.1-5.4-16.8-8-25.4c-1-3.3-5.8-3.4-6.7,0
						c-2.7,10.1,3.6,22.9,8.6,31.4c4.6,7.8,14.7,18.7,24.6,13.1C282,775.2,281.7,773.5,280.6,773.2z"/>
					<path class="st4" d="M258.2,778.9c-3.2-3.4-6.6-6.1-9.1-10.2c-2.4-4-3.7-8.4-5.9-12.5c-1.6-2.9-5.7-1.4-5.9,1.6
						c-0.6,9.8,8.7,24.6,19.1,25.6C258.8,783.6,259.6,780.4,258.2,778.9z"/>
					
						<use xlink:href="#XMLID_164_"  style="overflow:visible;fill:none;stroke:#212121;stroke-width:2.78;stroke-linecap:round;stroke-linejoin:round;stroke-miterlimit:10;"/>
				</g>
				<path class="st2" d="M376.4,829.7c-0.6-0.7-1.2-1.4-1.9-2c-0.7-0.6-1.4-1.1-2.1-1.6c-0.8-0.4-1.5-0.8-2.3-1
					c-0.8-0.2-1.6-0.3-2.4-0.2l-0.6,0l-0.3-0.6c-1.5-2.9-3-5.9-4-9.2c-0.5-1.6-0.9-3.3-1.2-4.9c-0.1-0.8-0.2-1.7-0.3-2.5
					c-0.1-0.8-0.1-1.7-0.1-2.5c0-3.4,0.4-6.7,1-10c0.7-3.3,1.7-6.4,2.9-9.5c-0.4,3.3-0.9,6.5-1.1,9.7c-0.3,3.2-0.4,6.4-0.3,9.6
					c0.1,0.8,0.1,1.6,0.2,2.4c0.1,0.8,0.2,1.6,0.3,2.4c0.2,1.6,0.5,3.1,1,4.6c0.8,3.1,2,6.1,3.2,9.1l-0.9-0.5c2.1,0,4,0.9,5.5,2.1
					C374.5,826.4,375.6,828,376.4,829.7z"/>
				<path class="st2" d="M342.3,683.6c-8.6,1.1-22.9,24.9-7.9,23.3c2.5-0.3,4.2-1.6,5.2-3.2c0.2,0.5,0.5,1,0.8,1.4c0,0,0,0,0,0
					c1.3,1.7,3.3,2.8,5.4,3.1c2.9,0.4,7.4-0.2,7.7-3.1C354.6,694.5,345.9,683.1,342.3,683.6z"/>
				<path class="st2" d="M341,694.6c3.9,0.4,6.3,0.9,3,3.3c-3.2,2.4-4.3,2.6-7.9-0.5C332.5,694.3,338.1,694.3,341,694.6z"/>
				<path class="st2" d="M363,658.4c0,0,3-9.6,6.8-6.2c3.8,3.4,6.5,10.6,6.5,10.6L363,658.4z"/>
				<path class="st2" d="M331.5,658.4c0,0-8.6-13.8-14.6,3.8L331.5,658.4z"/>
			</g>
		</g>
		<ellipse class="st5" cx="332.8" cy="679" rx="3.4" ry="6"/>
		<ellipse class="st5" cx="354.9" cy="679" rx="3.4" ry="6"/>
	</g>
	<g>
		<g>
			<g>
				<g>
					<path class="st6" d="M925.9,602.6H379.6c-6.6,0-12-5.4-12-12V208.8c0-6.6,5.4-12,12-12h546.3c6.6,0,12,5.4,12,12v381.9
						C937.9,597.3,932.5,602.6,925.9,602.6z"/>
					<line class="st2" x1="368.1" y1="332.4" x2="937.9" y2="332.4"/>
					<line class="st2" x1="368.1" y1="459.4" x2="937.9" y2="459.4"/>
					<circle class="st2" cx="462.6" cy="273.6" r="34.5"/>
					
						<ellipse transform="matrix(0.2222 -0.975 0.975 0.2222 -25.893 758.675)" class="st2" cx="462.6" cy="395.6" rx="34.5" ry="34.5"/>
					<circle class="st2" cx="462.6" cy="522.1" r="34.5"/>
					<g>
						<line class="st2" x1="517.9" y1="258.7" x2="826.4" y2="258.7"/>
						<line class="st2" x1="517.9" y1="282.8" x2="563.7" y2="282.8"/>
					</g>
					<g>
						<line class="st2" x1="517.9" y1="381.9" x2="826.4" y2="381.9"/>
						<line class="st2" x1="517.9" y1="406.1" x2="681.4" y2="406.1"/>
					</g>
					<g>
						<line class="st2" x1="517.9" y1="509.8" x2="585.3" y2="509.8"/>
						<line class="st2" x1="517.9" y1="533.9" x2="826.4" y2="533.9"/>
					</g>
					<polyline class="st2" points="448.7,277.2 458.5,283.9 476.4,263.3 					"/>
					<polyline class="st2" points="448.7,398.9 458.5,405.6 476.4,385 					"/>
					<polyline class="st2" points="448.7,525.8 458.5,532.4 476.4,511.8 					"/>
				</g>
			</g>
			<g>
				<g>
					<path class="st7" d="M1128.1,805.6h106.1c59.6,0,101.3-38.5,111.3-97.3l26.3-156.3"/>
					<path class="st8" d="M1129.3,1035.7L1177,815c5.6-25.3,28-43.4,54-43.4l0,0c26.3,0,49,18.6,54.2,44.4l43.2,219.7"/>
				</g>
				<g>
					<g>
						<g>
							<path class="st2" d="M916.3,1004l24.6-78.1l39.1-2.1l-22.6,83.7c-1.2,4.3-5.1,7.3-9.5,7.4l-30.2,0.2L916.3,1004z"/>
						</g>
						<g>
							<path class="st2" d="M1054.1,699.6l-34,2.2c-24,1.5-44.3,18-50.8,41.2L916,948.2l73.8-6.9l59.5-180.3L1054.1,699.6z"/>
							<polygon class="st2" points="995.6,957.7 906.5,957.7 912.6,924.9 1001.8,924.9 							"/>
						</g>
					</g>
					<g>
						<g>
							<path class="st2" d="M1058.9,1010l1.1-83.1l39.1-2.1l5.7,78.7c0.5,6.4-4.7,11.9-11.1,11.8l-33.4-0.3L1058.9,1010z"/>
							<g>
								<path class="st2" d="M1113.6,1023.5l-135,0.8l0,0c5-12.6,16.1-21.9,29.4-24.6l48-9.9c-0.9,3.3,3,6.8,7.2,9.4
									c5.7,3.5,9.3,9.7,9.7,16.4l0,0h40.7L1113.6,1023.5"/>
								<polygon class="st2" points="978.7,1035.7 1113.7,1034.9 1113.6,1023.5 978.6,1024.3 								"/>
							</g>
						</g>
						<g>
							<path class="st2" d="M1263.3,696l-106.4,4.2l-79.4,1.6c-23.2,0-42.1,14-42.4,37.2c-1.1,71.3,4.4,219.4,7.8,218.8
								c4.5-0.9,69.6,0,69.6,0l6.6-161.9l51,5.6c12.6,0.1,49.3,2.5,60.5-3.2C1253.9,786.5,1283.5,758.9,1263.3,696z"/>
							<rect x="1030.9" y="924.9" class="st2" width="89.2" height="32.9"/>
							<line class="st2" x1="1119.1" y1="795.9" x2="1117.9" y2="759.6"/>
						</g>
					</g>
				</g>
				<g>
					<g>
						<path class="st2" d="M954.6,569.5l-40.4-19c0,0-37.3-5-58.5-0.4c-2.2,0.5-3.6,2.7-3.1,4.9l0,0c0.5,2,2.3,3.3,4.3,3l20.8-2.1
							l-11.7,7.2c-2.9,1.9-2.5,6.2,0.6,7.7l0,0c1.3,0.6,2.8,0.6,4.1-0.1c5.9-3.2,24.3-11.7,42.2-1.6l-16.7,7.5
							c-3.3,1.5-4.2,5.7-1.8,8.4l0,0c1.2,1.3,2.9,1.9,4.6,1.7l15.6-2c0,0,18.3,7.5,35.3-0.7L954.6,569.5z"/>
						<path class="st2" d="M1094.2,514.3c-13.5,33.2-32.9,99.2-32.9,99.2l-107-50.4l-14.2,36.7l90.8,62l99.3-4.1l7.4-77.7
							L1094.2,514.3z"/>
					</g>
					<g>
						<path class="st2" d="M1112,492.6c-7.2,5.4-14,12.5-17.9,21.6l-6.4,185.3c0,0,113.7,24,175.5-3.6c0,0-1.7-155.2-36.9-196.3
							c0,0-11.1-21.8-67.5-21.9C1142.1,477.7,1125.4,482.5,1112,492.6z"/>
					</g>
					<g>
						<path class="st2" d="M992.1,654.9l-1.6-32c0,0-11.5-23.9-21.9-24.3c-7.7-0.2-17.3,5-22.5,10.4c-2.3,2.5-1.7,6.5,1.3,8
							c5,2.5,12.5,7,16.4,12.6c0,0-5.1,25.8,3.5,36.4c4.3,5.4,29.9,11.5,29.9,11.5L992.1,654.9z"/>
						<g>
							<path class="st2" d="M1171.3,526.3l-26,112.1l-154.2,6.7v54.5l182-8.4c0,0,44.9,0.8,57.5-152.5"/>
							<path class="st2" d="M1145.3,638.1"/>
						</g>
					</g>
				</g>
				<path class="st5" d="M1109.8,364.8c-12.3,1.3-21.9,11.3-22.8,23.7c-0.2,3-0.7,5.9-1.6,8.5c-3.8,11.2-16.1,16.4-10.6,45.6
					c1.7,9.2,3.2,16,4.2,21.3c2.5,12.3,13.7,21,26.2,20.4c27.1-1.3,72.5-5.2,110.7-17c15.7-4.9,22.8-23,14.6-37.3
					c-0.8-1.4-1.6-2.8-2.5-4.3c-6.3-10.9-10.4-25.8-12.7-36.5c-1.8-8.5-7.8-15.5-15.9-18.6l-25.7-9.8c-3.8-1.4-7.8-2-11.9-1.5
					L1109.8,364.8z"/>
				<path class="st5" d="M1113.3,345.7c-1.3-0.4,3.9-8.1,5.2-8.6c20.8-6.7,65.4-15.5,88,21.1c16.6,26.9-0.1,77.5-35,92.8
					c-33.3,14.6-27.6-95.9-27.6-95.9L1113.3,345.7z"/>
				<path class="st2" d="M1121.8,414.3c1.1,9.1-5.4,17.3-14.4,18.4c-9.1,1.1-16.2-11.3-17.3-20.3c-1.1-9.1,4.3-11.4,13.4-12.5
					C1112.5,398.8,1120.7,405.2,1121.8,414.3z"/>
				<polyline class="st2" points="1171.3,480.7 1164.5,436.6 1127.5,458.5 1131.5,485.9 				"/>
				<path class="st2" d="M1138.7,463.7L1138.7,463.7c-21.2,1.1-39.6-14.7-41.1-32l-3.3-40.8c-1.9-21.7,13.8-40.9,35.4-43.5l0,0
					c22.1-2.7,46.1,12.6,48.7,34.8l2.3,32.9C1182.5,440.4,1165.9,461.6,1138.7,463.7z"/>
				<path class="st2" d="M1120.7,409.4c0.9,7.7-1,11.8-3,16.4c0,0,0,0.1,0,0.1c-1.9,4.6,3.4,8.9,7.6,6.3"/>
				<path class="st2" d="M1133.1,415.1c0,0,4.1-5.9,11.7-0.2"/>
				<path class="st2" d="M1101.7,416.3c0,0,3.7-5.8,8.7-0.4"/>
				<path class="st2" d="M1126.6,442.7c0,0,6.3,1.5,11.4-4.8"/>
				<path class="st5" d="M1118.5,337.2c0,0-45.3,16.4-35.9,33.4c7,12.6,52.5,20.5,95.8,11.5c0,0,19.8-16-4.7-32.7
					C1173.7,349.4,1160.6,330.9,1118.5,337.2z"/>
				<path class="st9" d="M1191.6,480.8c0,0-1.2,20.2-39.5,24.7c-7.5,0.9-15.2,0.7-22.5-1.4c-7.3-2.1-9-7.1-11.7-15.4"/>
				<g>
					<g>
						<path class="st2" d="M989.9,690.6H860.1V676h129.8c4,0,7.3,3.3,7.3,7.3l0,0C997.2,687.3,993.9,690.6,989.9,690.6z"/>
						<g>
							<path class="st2" d="M877.2,690.6H690.8c-9.9,0-18.6-6.6-21.3-16.1l-36.8-132c-1.3-4.8,2.3-9.6,7.3-9.6h188.6
								c4.1,0,7.7,2.8,8.8,6.8L877.2,690.6z"/>
							<path class="st2" d="M761.6,614.7c0,9-7.3,16.3-16.3,16.3c-9,0-16.3-7.3-16.3-16.3c0-9,7.3-16.3,16.3-16.3
								C754.3,598.5,761.6,605.7,761.6,614.7z"/>
						</g>
					</g>
					<g>
						<line class="st10" x1="829" y1="708" x2="829" y2="1035.7"/>
						<rect x="545.3" y="690.6" class="st2" width="553.7" height="34.8"/>
					</g>
				</g>
			</g>
		</g>
		<path class="st2" d="M1175.5,397c0,0,6.2-9.9,12.2-4.8s2.4,26.4-9.2,25.9"/>
		<path class="st2" d="M1133.8,389c0,0,6.3-3.1,12.5,1.8"/>
		<path class="st2" d="M1109.2,389.4c0,0-8.3-2.7-11.6,2"/>
		<path class="st2" d="M871.4,559.5c0,0,19.6-9,25.9-9.4c6.2-0.4,16.4,0.7,16.4,0.7"/>
		<path class="st2" d="M944.7,612.9c0,0,14.3-12.3,28.6,14.2"/>
		<path class="st2" d="M981.6,622.7c0,0-9.1-22.7-27.2-19.9"/>
		<g>
			<path class="st2" d="M973.4,1023.5l-135,0.8l0,0c5-12.6,16.1-21.9,29.4-24.6l48-9.9c-0.9,3.3,3,6.8,7.2,9.4
				c5.7,3.5,9.3,9.7,9.7,16.4l0,0h40.7L973.4,1023.5"/>
			<polygon class="st2" points="838.5,1035.7 973.4,1034.9 973.4,1023.5 838.4,1024.3 			"/>
		</g>
	</g>
	<g>
		<path id="XMLID_588_" class="st2" d="M1402.6,884.9c-4.2,3.8-8.5,7.7-11.2,12.7c-2.7,5-3.4,11.4-0.3,16.2c1.1,1.7,2.5,3.1,4.1,4.3
			c5.1,3.8,11.6,5.9,17.8,5.1c6.3-0.8,12.2-4.8,14.8-10.7c1.5-3.4,1.8-7.2,2.8-10.8c3-10.7,13.2-19.5,24.4-19.2"/>
		<path id="XMLID_481_" class="st2" d="M1494.5,921.8c-9.1,7.8-25.1,7.2-34.9,1.1c-13.6-8.4-20.8-23.9-35.8-30.8
			c-5.6-2.6-12-3.8-17.9-2.1c-6,1.7-10.9,6.3-16.4,9.3c11.3-25.7,41.8-36.4,53.8-36.3c22.3,0.1,44,15,53,36.5
			C1499.3,906.8,1500.4,916.7,1494.5,921.8z"/>
		<path id="XMLID_9_" class="st2" d="M1600,832.4c8.3-3,17.8-4,25.8-0.2c4.4,2.1,8.1,5.5,12,8.5c7,5.5,16.3,10,24.5,6.6
			c7.5-3.1,11.3-12.5,9.3-20.4c-2-7.9-8.7-14-16.3-16.9c-7.6-2.9-16.1-2.8-24.1-1.6"/>
		<path id="XMLID_777_" class="st11" d="M1536.4,856.2c-17.4-8.5-15.7-32.6-14.9-47.6c1.4-23.9,2.3-48.3,7.9-71.7
			c7.5-31.7,28.2-62.3,63.4-68c10.3-1.7,21.2-2.4,31.2,0.8c10,3.2,19,11.1,20.3,20.7c0.3,2.3,0.2,4.7-1.1,6.6
			c-1.5,2.3-4.3,3.5-7,4.7c-25.6,11.6-45.2,33.7-52.4,59.3c-5.2,18.1-4.4,37.5-9.3,55.7C1569.6,835,1556.5,853.3,1536.4,856.2"/>
		<path id="XMLID_708_" class="st2" d="M1557,915c28.9,0.4,28.6-25.9,35.7-34.9c12.4-15.8,13.7-37.7,25.1-54.2
			c8-11.6,18.6-18.7,32.3-17.7c-6-4.5-55.7-9.1-66.4-2.8c-12,7.1-18.2,15.6-23.8,28.1C1553.5,847.8,1530.2,900.6,1557,915"/>
		<path id="XMLID_707_" class="st9" d="M1637.7,805.8c-38.8-2.7-60.5,29.5-71.5,67.5c-11.3,38.9-14.7,86.4-21,126.5"/>
		<path id="XMLID_710_" class="st2" d="M1497.7,846.8c-11.1-0.9-19.9-10.1-24.4-20.2c-10.5-23.4-8.5-50.3-23.4-72
			c-7.7-11.3-18.2-20.4-26.6-31.2c-11.8-15.3-17.6-37.1-8.5-55.1c13.6-27.1,42.5-14.8,60,1c24.3,21.8,44.3,53.7,49.8,84.7
			C1528.2,774.4,1533.8,825.5,1497.7,846.8"/>
		<path id="XMLID_300_" class="st9" d="M1433.2,676.9c15.3,0,34.5,25.2,41.3,42.9c13.9,36.1,19,75,22.3,113.3
			c4.1,48.3,6.4,96.9,6.7,145.4"/>
		<path id="XMLID_586_" class="st11" d="M1400,789.2c-10.7-0.6-28.9,1.7-39,5.7c-4.2,3.2-11.8,9.9-15.7,20.1c-4,10.2-2,23.1,6,30.4
			c6.2,5.6,15,7.3,23.3,6.8c4-0.3,8.2-1,11.6-3.1c8.9-5.4,10.9-17.3,15.9-26.6c6.8-12.6,20.7-20.9,34.7-20.8"/>
		<path id="XMLID_585_" class="st9" d="M1367,831.5c0.4-16.1,2.8-28.6,16.6-38.8c8.5-6.3,19.3-9.3,29.7-8.3"/>
		<path id="XMLID_584_" class="st11" d="M1361.1,794.9c19.6-3.6,40.5,4.4,54.4,19c6.6,6.9,12.9,15.7,22.2,16.6
			c9.7,0.9,21.8,1.8,22.2-18.5c0.3-15.4-9-19.3-17.2-24.7c-8.2-5.4-18-7.3-27.7-8C1403.7,778.4,1376.2,779.2,1361.1,794.9"/>
		<path id="XMLID_572_" class="st9" d="M1383.9,781.6c34.5,0,55.4,23.4,65.5,39.1c14.7,22.9,25.7,64.4,27.9,165.2"/>
		<path id="XMLID_660_" class="st9" d="M1427.1,872.7c9.5-1.4,19.5-1.1,28.5,2.4c14.9,5.8,25.3,19.9,30.6,35
			c5.2,15.1,12,44.8,6.8,73.7"/>
		<path id="XMLID_466_" class="st9" d="M1603.4,683.5c-9.1,4.8-16.4,12.4-22.6,20.6c-23.2,30.7-34,69.4-40,106.8
			c-6.8,42.2-10.8,84.9-11.9,127.6c-0.6,23.5-0.4,47,0.7,70.5"/>
		<path id="XMLID_7_" class="st2" d="M1445.3,973.2v23.3c0,92.3,32.3,118.5,32.3,118.5h71.2c0,0,32.3-26.2,32.3-118.5v-23.3H1445.3z
			"/>
	</g>
	<line class="st10" x1="1113.7" y1="1035.7" x2="652.7" y2="1035.7"/>
</g>
</svg>
